<?xml version="1.0" encoding="UTF-8"?>
<svg xmlns="http://www.w3.org/2000/svg" width="18px" height="18px" viewBox="0 0 18 18" version="1.1">
<path d="M 12.730469 11.15625 C 12.554688 11.09375 12.429688 10.976562 12.355469 10.800781 C 12.28125 10.625 12.28125 10.449219 12.355469 10.273438 C 12.457031 10.050781 12.519531 9.820312 12.542969 9.589844 C 12.570312 9.359375 12.582031 9.117188 12.582031 8.867188 C 12.582031 7.90625 12.242188 7.085938 11.570312 6.414062 C 10.894531 5.738281 10.074219 5.398438 9.113281 5.398438 C 8.863281 5.398438 8.621094 5.414062 8.390625 5.445312 C 8.160156 5.476562 7.929688 5.542969 7.707031 5.644531 C 7.53125 5.71875 7.359375 5.714844 7.191406 5.632812 C 7.023438 5.554688 6.90625 5.425781 6.84375 5.25 C 6.769531 5.074219 6.769531 4.902344 6.84375 4.734375 C 6.917969 4.566406 7.042969 4.449219 7.21875 4.386719 C 7.519531 4.261719 7.832031 4.175781 8.15625 4.125 C 8.480469 4.074219 8.804688 4.050781 9.132812 4.050781 C 10.46875 4.050781 11.601562 4.519531 12.535156 5.457031 C 13.464844 6.394531 13.929688 7.53125 13.929688 8.867188 C 13.929688 9.195312 13.910156 9.515625 13.867188 9.835938 C 13.820312 10.152344 13.742188 10.46875 13.632812 10.78125 C 13.570312 10.957031 13.449219 11.074219 13.273438 11.136719 C 13.101562 11.199219 12.917969 11.207031 12.730469 11.15625 Z M 9 13.949219 C 7.625 13.949219 6.457031 13.46875 5.492188 12.507812 C 4.53125 11.542969 4.050781 10.375 4.050781 9 C 4.050781 8.488281 4.125 7.988281 4.273438 7.5 C 4.425781 7.011719 4.648438 6.5625 4.949219 6.148438 C 5.011719 6.0625 5.089844 5.992188 5.183594 5.945312 C 5.277344 5.894531 5.375 5.863281 5.476562 5.851562 C 5.613281 5.851562 5.738281 5.882812 5.851562 5.945312 C 5.960938 6.007812 6.050781 6.09375 6.113281 6.207031 C 6.773438 7.417969 7.589844 8.507812 8.558594 9.46875 C 9.527344 10.429688 10.617188 11.238281 11.832031 11.886719 C 11.929688 11.949219 12.011719 12.027344 12.074219 12.121094 C 12.136719 12.214844 12.175781 12.320312 12.1875 12.429688 C 12.1875 12.542969 12.164062 12.652344 12.113281 12.757812 C 12.0625 12.867188 11.988281 12.949219 11.886719 13.011719 C 11.460938 13.3125 11.007812 13.542969 10.519531 13.707031 C 10.03125 13.867188 9.523438 13.949219 9 13.949219 Z M 9 2.699219 C 8.8125 2.699219 8.652344 2.632812 8.523438 2.503906 C 8.390625 2.371094 8.324219 2.210938 8.324219 2.023438 L 8.324219 1.351562 C 8.324219 1.164062 8.390625 1.003906 8.523438 0.871094 C 8.652344 0.742188 8.8125 0.675781 9 0.675781 C 9.1875 0.675781 9.347656 0.742188 9.476562 0.871094 C 9.609375 1.003906 9.675781 1.164062 9.675781 1.351562 L 9.675781 2.023438 C 9.675781 2.210938 9.609375 2.371094 9.476562 2.503906 C 9.347656 2.632812 9.1875 2.699219 9 2.699219 Z M 9 17.324219 C 8.8125 17.324219 8.652344 17.257812 8.523438 17.128906 C 8.390625 16.996094 8.324219 16.835938 8.324219 16.648438 L 8.324219 15.976562 C 8.324219 15.789062 8.390625 15.628906 8.523438 15.496094 C 8.652344 15.367188 8.8125 15.300781 9 15.300781 C 9.1875 15.300781 9.347656 15.367188 9.476562 15.496094 C 9.609375 15.628906 9.675781 15.789062 9.675781 15.976562 L 9.675781 16.648438 C 9.675781 16.835938 9.609375 16.996094 9.476562 17.128906 C 9.347656 17.257812 9.1875 17.324219 9 17.324219 Z M 13.445312 4.539062 C 13.304688 4.398438 13.238281 4.238281 13.238281 4.058594 C 13.238281 3.878906 13.304688 3.71875 13.445312 3.582031 L 13.929688 3.09375 C 14.070312 2.957031 14.230469 2.886719 14.417969 2.886719 C 14.605469 2.886719 14.769531 2.957031 14.90625 3.09375 C 15.03125 3.230469 15.09375 3.390625 15.09375 3.570312 C 15.09375 3.753906 15.023438 3.914062 14.886719 4.050781 L 14.398438 4.539062 C 14.261719 4.675781 14.101562 4.742188 13.921875 4.742188 C 13.742188 4.742188 13.582031 4.675781 13.445312 4.539062 Z M 3.09375 14.90625 C 2.957031 14.769531 2.886719 14.609375 2.886719 14.429688 C 2.886719 14.246094 2.957031 14.085938 3.09375 13.949219 L 3.582031 13.460938 C 3.707031 13.335938 3.855469 13.273438 4.03125 13.273438 C 4.207031 13.273438 4.363281 13.335938 4.5 13.460938 C 4.636719 13.585938 4.710938 13.742188 4.726562 13.929688 C 4.738281 14.117188 4.675781 14.28125 4.539062 14.417969 L 4.050781 14.90625 C 3.914062 15.042969 3.753906 15.113281 3.570312 15.113281 C 3.390625 15.113281 3.230469 15.042969 3.09375 14.90625 Z M 15.976562 9.675781 C 15.789062 9.675781 15.628906 9.609375 15.496094 9.476562 C 15.367188 9.347656 15.300781 9.1875 15.300781 9 C 15.300781 8.8125 15.367188 8.652344 15.496094 8.523438 C 15.628906 8.390625 15.789062 8.324219 15.976562 8.324219 L 16.648438 8.324219 C 16.835938 8.324219 16.996094 8.390625 17.128906 8.523438 C 17.257812 8.652344 17.324219 8.8125 17.324219 9 C 17.324219 9.1875 17.257812 9.347656 17.128906 9.476562 C 16.996094 9.609375 16.835938 9.675781 16.648438 9.675781 Z M 1.351562 9.675781 C 1.164062 9.675781 1.003906 9.609375 0.871094 9.476562 C 0.742188 9.347656 0.675781 9.1875 0.675781 9 C 0.675781 8.8125 0.742188 8.652344 0.871094 8.523438 C 1.003906 8.390625 1.164062 8.324219 1.351562 8.324219 L 2.023438 8.324219 C 2.210938 8.324219 2.371094 8.390625 2.503906 8.523438 C 2.632812 8.652344 2.699219 8.8125 2.699219 9 C 2.699219 9.1875 2.632812 9.347656 2.503906 9.476562 C 2.371094 9.609375 2.210938 9.675781 2.023438 9.675781 Z M 13.988281 14.90625 L 13.5 14.417969 C 13.375 14.292969 13.3125 14.144531 13.3125 13.96875 C 13.3125 13.792969 13.375 13.636719 13.5 13.5 C 13.625 13.363281 13.78125 13.289062 13.96875 13.273438 C 14.15625 13.261719 14.320312 13.324219 14.457031 13.460938 L 14.945312 13.949219 C 15.082031 14.085938 15.148438 14.242188 15.140625 14.417969 C 15.132812 14.59375 15.070312 14.75 14.945312 14.886719 C 14.804688 15.023438 14.648438 15.097656 14.464844 15.101562 C 14.285156 15.109375 14.125 15.042969 13.988281 14.90625 Z M 3.582031 4.5 L 3.09375 4.011719 C 2.96875 3.886719 2.90625 3.738281 2.90625 3.5625 C 2.90625 3.386719 2.976562 3.230469 3.113281 3.09375 C 3.238281 2.957031 3.390625 2.882812 3.570312 2.871094 C 3.753906 2.855469 3.914062 2.917969 4.050781 3.054688 L 4.539062 3.542969 C 4.675781 3.679688 4.742188 3.839844 4.742188 4.023438 C 4.742188 4.203125 4.675781 4.363281 4.539062 4.5 C 4.398438 4.636719 4.238281 4.707031 4.058594 4.707031 C 3.878906 4.707031 3.71875 4.636719 3.582031 4.5 Z M 3.582031 4.5 "/>
</svg>
